<?xml version="1.0" encoding="UTF-8"?>
<svg width="32px" height="32px" viewBox="0 0 32 32" version="1.1" xmlns="http://www.w3.org/2000/svg" xmlns:xlink="http://www.w3.org/1999/xlink">
    <!-- Generator: Sketch 42 (36781) - http://www.bohemiancoding.com/sketch -->
    <title>Shape</title>
    <desc>Created with Sketch.</desc>
    <defs></defs>
    <g id="Page-1" stroke="none" stroke-width="1" fill="none" fill-rule="evenodd">
        <path d="M27.414,24.586 L22.828,20 L20,22.828 L24.586,27.414 L20,32 L32,32 L32,20 L27.414,24.586 Z M12,0 L0,0 L0,12 L4.586,7.414 L9.129,11.953 L11.957,9.125 L7.414,4.586 L12,0 Z M12,22.828 L9.172,20 L4.586,24.586 L0,20 L0,32 L12,32 L7.414,27.414 L12,22.828 Z M32,0 L20,0 L24.586,4.586 L20.043,9.125 L22.871,11.953 L27.414,7.414 L32,12 L32,0 Z" id="Shape" fill="#FFFFFF" fill-rule="nonzero"></path>
    </g>
</svg>