<?xml version="1.0" encoding="UTF-8"?>
<svg width="32px" height="32px" viewBox="0 0 32 32" version="1.1" xmlns="http://www.w3.org/2000/svg" xmlns:xlink="http://www.w3.org/1999/xlink">
    <!-- Generator: Sketch 42 (36781) - http://www.bohemiancoding.com/sketch -->
    <title>Shape</title>
    <desc>Created with Sketch.</desc>
    <defs></defs>
    <g id="Page-1" stroke="none" stroke-width="1" fill="none" fill-rule="evenodd">
        <path d="M24.586,27.414 L29.172,32 L32,29.172 L27.414,24.586 L32,20 L20,20 L20,32 L24.586,27.414 Z M0,12 L12,12 L12,0 L7.414,4.586 L2.875,0.043 L0.047,2.871 L4.586,7.414 L0,12 Z M0,29.172 L2.828,32 L7.414,27.414 L12,32 L12,20 L0,20 L4.586,24.586 L0,29.172 Z M20,12 L32,12 L27.414,7.414 L31.961,2.871 L29.133,0.043 L24.586,4.586 L20,0 L20,12 Z" id="Shape" fill="#FFFFFF" fill-rule="nonzero"></path>
    </g>
</svg>